PathFileType	4	(X/Y/Z)	T:\Spectrum_Optical_Capture\Spectrum_Demo_10_05_01_TRUECOMBAT\07_Smooth_Trc\TC_Jog_1.trc
DataRate	CameraRate	NumFrames	NumMarkers	Units	OrigDataRate	OrigDataStartFrame	OrigNumFrames
60.0	60.0	       4	46	mm	60.0	190	       504
Frame#	Time	HeadTop			ForeHead			LFrontHead			RFrontHead			TopSpine			Sternum			Scapula			LFShoulder			LShoulder			LBicep			LOuterElbow			LHand			LWristPinky			LWristThumb			RFShoulder			RShoulder			RBicep			ROuterElbow			RHand			RWristPinky			RWristThumb			MiddleBack			LowerBack			Root			Pelvis			LBackWaist			RBackWaist			LFrontWaist			RFrontWaist			Bellymarker			LThigh			LOuterKnee			LAnkle			LHeel			LOuterMeta			LToe			RThigh			ROuterKnee			RAnkle			RHeel			ROuterMeta			RToe			Floor1			Floor2			Floor3			Floor4			
		X1	Y1	Z1	X2	Y2	Z2	X3	Y3	Z3	X4	Y4	Z4	X5	Y5	Z5	X6	Y6	Z6	X7	Y7	Z7	X8	Y8	Z8	X9	Y9	Z9	X10	Y10	Z10	X11	Y11	Z11	X12	Y12	Z12	X13	Y13	Z13	X14	Y14	Z14	X15	Y15	Z15	X16	Y16	Z16	X17	Y17	Z17	X18	Y18	Z18	X19	Y19	Z19	X20	Y20	Z20	X21	Y21	Z21	X22	Y22	Z22	X23	Y23	Z23	X24	Y24	Z24	X25	Y25	Z25	X26	Y26	Z26	X27	Y27	Z27	X28	Y28	Z28	X29	Y29	Z29	X30	Y30	Z30	X31	Y31	Z31	X32	Y32	Z32	X33	Y33	Z33	X34	Y34	Z34	X35	Y35	Z35	X36	Y36	Z36	X37	Y37	Z37	X38	Y38	Z38	X39	Y39	Z39	X40	Y40	Z40	X41	Y41	Z41	X42	Y42	Z42	X43	Y43	Z43	X44	Y44	Z44	X45	Y45	Z45	X46	Y46	Z46	

190	3.150	-1468.56055	1666.45618	-1583.52734	-1399.58325	1543.91504	-1487.82141	-1367.69482	1542.45544	-1607.18555	-1512.26807	1540.92261	-1493.89587	-1542.19751	1387.31165	-1737.94800	-1432.98926	1161.96375	-1555.76721	-1674.40234	1268.71545	-1735.24707	-1386.52222	1283.03491	-1601.64026	-1331.50415	1375.96948	-1747.58923	-1252.73303	1177.56677	-1803.70911	-1294.22900	1075.94324	-1882.88245	-1218.42334	1075.13953	-1650.68518	-1216.77380	1032.75403	-1549.10754	-1206.38904	1134.53308	-1533.06531	-1524.10083	1269.41211	-1530.87695	-1658.45081	1362.76477	-1565.23401	-1784.94836	1266.89038	-1637.77502	-1853.95654	1146.63623	-1720.28381	-1737.93933	1002.90356	-1555.77222	-1692.26990	914.91345	-1537.05566	-1650.23584	951.18677	-1455.37000	-1555.68604	1307.66296	-1776.07166	-1562.53845	1184.06604	-1793.35620	-1567.41516	1071.67700	-1797.99133	-1417.91357	1099.91003	-1839.26929	-1444.85022	983.10120	-1862.34167	-1675.17773	973.62482	-1699.86731	-1352.47925	959.74738	-1755.56006	-1617.18567	963.58917	-1571.17834	-1425.99292	963.41064	-1571.34241	-1412.92615	694.48749	-1883.56262	-1450.81812	527.32520	-1882.86621	-1640.06042	221.01370	-2056.35278	-1751.05603	216.84764	-2084.25317	-1659.39087	89.05043	-2066.88403	-1654.58545	29.95854	-1957.16443	-1594.45374	720.77289	-1525.11597	-1566.22900	555.36621	-1542.27930	-1513.46948	160.11714	-1537.91345	-1487.14111	70.30266	-1633.31592	-1468.47778	41.61638	-1473.37451	-1358.51379	75.22630	-1424.27051	4200.29834	32.25490	-4241.38428	-3732.23047	-13.00724	-4190.74121	-3784.77856	-15.62653	4949.84717	4162.45117	21.50142	4905.20898	
191	3.167	-1450.26636	1666.70959	-1558.27576	-1380.41504	1545.08679	-1461.98279	-1349.14551	1543.26477	-1581.27173	-1493.37817	1541.50891	-1467.89929	-1522.07605	1387.41748	-1709.64954	-1412.22034	1162.40918	-1528.04126	-1653.56995	1268.35242	-1706.09094	-1365.75806	1284.06482	-1573.50159	-1311.63525	1377.09058	-1719.38977	-1230.97852	1180.30029	-1778.01489	-1272.20728	1079.32007	-1858.32690	-1198.41895	1077.51660	-1625.51062	-1198.23328	1034.77075	-1523.51685	-1189.11768	1136.58240	-1506.71826	-1503.09253	1269.57568	-1503.02185	-1637.36877	1362.50940	-1536.67151	-1764.40808	1267.08765	-1608.31409	-1833.32776	1146.13757	-1690.54236	-1715.77502	1004.45197	-1526.01965	-1669.16821	916.78876	-1507.38660	-1627.13672	953.84802	-1425.92505	-1535.49377	1308.13684	-1748.12915	-1541.73560	1184.42297	-1765.91211	-1545.92175	1072.06384	-1770.83948	-1396.50439	1100.82056	-1811.60510	-1422.78711	983.38580	-1835.05969	-1653.32422	972.92584	-1673.43896	-1331.04541	960.84290	-1727.51233	-1596.39172	963.23779	-1544.70630	-1404.96411	963.94519	-1544.36353	-1388.11902	693.17255	-1853.68433	-1423.60461	525.25537	-1852.01318	-1623.47217	239.01413	-2037.47717	-1734.78174	240.30670	-2063.45435	-1645.57129	110.30551	-2055.84619	-1639.20923	41.24280	-1950.22498	-1575.03857	716.95947	-1501.11877	-1546.95361	552.03729	-1521.31165	-1489.67188	156.28809	-1515.38745	-1461.51831	68.83304	-1610.16089	-1443.95898	37.25934	-1450.90247	-1334.12000	68.59381	-1401.00293	4200.31934	32.26748	-4241.45703	-3732.23340	-12.99996	-4190.71240	-3784.65479	-15.61904	4949.80420	4162.61572	21.44609	4905.23926	
192	3.183	-1431.76782	1663.97302	-1533.28479	-1361.01990	1543.51880	-1436.48425	-1330.04688	1541.27649	-1555.56396	-1474.04639	1539.28699	-1441.73462	-1502.18994	1384.09314	-1681.41956	-1391.01746	1159.04382	-1500.83911	-1632.92371	1264.27576	-1676.93018	-1344.52917	1281.06177	-1546.14758	-1291.59131	1374.48022	-1691.97083	-1209.84595	1179.04248	-1753.41003	-1251.00757	1078.88159	-1834.87964	-1178.22791	1075.30493	-1601.79138	-1179.11292	1031.82629	-1499.73218	-1170.58618	1133.57886	-1482.01392	-1481.56567	1266.03906	-1475.24622	-1616.26624	1358.64661	-1507.92578	-1743.95313	1262.52429	-1577.72742	-1813.10266	1140.45337	-1658.51050	-1692.82178	1001.50116	-1494.10010	-1644.85474	914.30438	-1475.36377	-1602.36438	952.92322	-1394.82288	-1515.57507	1304.93481	-1720.02673	-1521.60901	1181.08301	-1738.73706	-1525.39417	1068.42566	-1744.16846	-1376.26245	1097.83167	-1784.73132	-1401.88806	979.43268	-1808.72754	-1632.41772	968.81213	-1647.25317	-1310.06628	958.30176	-1700.91260	-1576.34863	959.17816	-1518.53918	-1384.33899	960.64282	-1518.04272	-1362.57275	688.31348	-1823.33936	-1393.42041	519.52563	-1819.18164	-1604.26355	257.49841	-2014.77112	-1717.04492	263.53546	-2037.79614	-1628.00378	133.78670	-2041.07153	-1619.46802	55.98652	-1940.71558	-1555.78931	710.96277	-1476.69592	-1527.29504	546.76392	-1499.82239	-1470.58435	151.52231	-1499.87122	-1442.34631	67.95210	-1596.38135	-1427.12488	32.82315	-1438.08923	-1316.94800	58.72751	-1386.79517	4200.34375	32.30378	-4241.44629	-3732.27905	-12.98457	-4190.68604	-3784.49902	-15.56270	4949.75098	4162.74756	21.38651	4905.28613	
193	3.200	-1412.94934	1658.56616	-1508.41663	-1341.36865	1539.34729	-1411.20337	-1310.40625	1536.61914	-1529.94653	-1454.24109	1534.44983	-1415.52612	-1482.53882	1377.59070	-1653.38855	-1369.39771	1152.29980	-1474.27856	-1612.64282	1256.88257	-1647.88342	-1322.94458	1274.33105	-1519.78662	-1271.46289	1368.43542	-1665.56812	-1189.55591	1174.00293	-1729.90088	-1230.89795	1074.80847	-1812.47461	-1157.93042	1068.33716	-1579.43896	-1159.31567	1023.53003	-1477.85156	-1150.61304	1125.14282	-1458.81018	-1459.59131	1259.15149	-1447.79199	-1595.15430	1351.47644	-1479.11450	-1723.54468	1253.38879	-1545.99084	-1793.00769	1129.85376	-1624.29541	-1669.13245	993.92816	-1460.25854	-1619.60669	907.20197	-1441.25073	-1576.32446	947.92755	-1362.16919	-1495.93604	1298.27954	-1691.75415	-1502.06445	1174.33264	-1711.65125	-1505.72021	1061.18677	-1717.76050	-1357.09570	1091.25122	-1758.63013	-1382.03809	971.46381	-1783.14453	-1612.53699	962.17487	-1621.03894	-1289.53198	952.17883	-1675.56616	-1556.66040	952.20551	-1492.46252	-1363.95752	953.92255	-1492.33496	-1336.54053	680.47015	-1792.94458	-1360.71411	510.89713	-1785.00171	-1581.22681	275.40176	-1987.75110	-1696.03760	285.79547	-2007.21301	-1606.07788	157.76396	-2021.58301	-1595.41162	72.32482	-1927.19104	-1536.66040	703.06232	-1452.08643	-1507.62451	539.67450	-1478.17017	-1455.97925	145.66606	-1490.48035	-1429.31250	66.13470	-1590.56592	-1417.02856	29.06040	-1433.03735	-1306.16528	48.48491	-1380.19812	4200.37744	32.36352	-4241.35449	-3732.35474	-12.97233	-4190.68115	-3784.38501	-15.48593	4949.72119	4162.75195	21.33975	4905.29834	
